/* XPM */
static char *result[] = {
/* columns rows colors chars-per-pixel */
"64 64 243 2 ",
"   c #1E0C22",
".  c #2D1733",
"X  c #291738",
"o  c #2A243B",
"O  c #37283B",
"+  c #2E2747",
"@  c #3B2A44",
"#  c #3B2947",
"$  c #3F3242",
"%  c #3F3661",
"&  c #26287A",
"*  c #432C4B",
"=  c #42334A",
"-  c #572650",
";  c #463855",
":  c #58385A",
">  c #652E5E",
",  c #5B3960",
"<  c #682E61",
"1  c #6D3566",
"2  c #71356A",
"3  c #74396D",
"4  c #783D71",
"5  c #4C4258",
"6  c #564A5A",
"7  c #5D545D",
"8  c #4C4869",
"9  c #564A68",
"0  c #565468",
"q  c #575676",
"w  c #6E516D",
"e  c #685A68",
"r  c #7B4374",
"t  c #7B4B75",
"y  c #7F4278",
"u  c #7D4B78",
"i  c #625B73",
"p  c #625C7E",
"a  c #7E5279",
"s  c #586379",
"d  c #68656F",
"f  c #66647A",
"g  c #736477",
"h  c #814B7B",
"j  c #84517E",
"k  c #835B7D",
"l  c #1B3083",
"z  c #303D81",
"x  c #344084",
"c  c #5D5196",
"v  c #645E80",
"b  c #725B8C",
"n  c #676986",
"m  c #756F81",
"M  c #6C728B",
"N  c #75758B",
"B  c #7A748B",
"V  c #6F7994",
"C  c #757C96",
"Z  c #7566A8",
"A  c #874C82",
"S  c #8B5285",
"D  c #895A84",
"F  c #92588D",
"G  c #8A6685",
"H  c #88758A",
"J  c #8C738F",
"K  c #986B92",
"L  c #967792",
"P  c #A06499",
"I  c #A3779C",
"U  c #BF5CBD",
"Y  c #8B77AB",
"T  c #AF72AF",
"R  c #AF6DD1",
"E  c #D94FD9",
"W  c #E84CE9",
"Q  c #EC55ED",
"!  c #EE6FE9",
"~  c #EC79ED",
"^  c #F96BF9",
"/  c #F678F8",
"(  c #698196",
")  c #74819C",
"_  c #78849F",
"`  c #778BA6",
"'  c #798BA5",
"]  c #7991A6",
"[  c #7C93AC",
"{  c #7D97B1",
"}  c #8D8797",
"|  c #968E95",
" . c #988798",
".. c #979095",
"X. c #9B929C",
"o. c #A28B9B",
"O. c #A8939A",
"+. c #8C8DAB",
"@. c #8798B4",
"#. c #8B9DBA",
"$. c #A888A4",
"%. c #AE85AE",
"&. c #A49DA4",
"*. c #AD91A9",
"=. c #AA99A8",
"-. c #B694A9",
";. c #B899B6",
":. c #85A2B9",
">. c #8BA1BC",
",. c #90A1BF",
"<. c #A9A4A8",
"1. c #ACA4AB",
"2. c #B0A9AF",
"3. c #ADA5B1",
"4. c #B3ABB2",
"5. c #B8A7B8",
"6. c #BCA4BB",
"7. c #BCB4B9",
"8. c #C38AA2",
"9. c #D794AF",
"0. c #C499B5",
"q. c #F591AD",
"w. c #F899B5",
"e. c #FA9DBA",
"r. c #CFA7AE",
"t. c #C2A2BB",
"y. c #FAA2BD",
"u. c #8DAEC4",
"i. c #92A2C1",
"p. c #93B4CB",
"a. c #98B7CF",
"s. c #9BBBD2",
"d. c #AAABC5",
"f. c #D79CCC",
"g. c #C4ABC2",
"h. c #C7AAC4",
"j. c #C3B5C2",
"k. c #C6BBC4",
"l. c #C8BBC7",
"z. c #CDB5CB",
"x. c #CCBCCB",
"c. c #D2B8CC",
"v. c #D4BDD1",
"b. c #D9B9D8",
"n. c #ECAFCB",
"m. c #FBA6C1",
"M. c #FCABC3",
"N. c #FBABC6",
"B. c #FBB4CB",
"V. c #F5BCD6",
"C. c #FDBDD4",
"Z. c #C79DE6",
"A. c #EC88EC",
"S. c #F185EC",
"D. c #ED99EC",
"F. c #F598E9",
"G. c #F485F4",
"H. c #F48CF4",
"J. c #FB8CFC",
"K. c #F494F4",
"L. c #F49AF3",
"P. c #F997FB",
"I. c #D6AFEF",
"U. c #D9B9EB",
"Y. c #D1A7F1",
"T. c #F6AAEB",
"R. c #EBBBEA",
"E. c #F7A7F7",
"W. c #FBACFB",
"Q. c #E0B7F0",
"!. c #E3BCF3",
"~. c #F2B2F1",
"^. c #F5BBF4",
"/. c #FDB4FD",
"(. c #FCBCFC",
"). c #9FC7DC",
"_. c #A3C7DE",
"`. c #A6CCE2",
"'. c #A9CDE5",
"]. c #A9D1E6",
"[. c #A7D1E8",
"{. c #ACD6EB",
"}. c #ADD8ED",
"|. c #AFDDF0",
" X c #B0DDF1",
".X c #B3E2F5",
"XX c #B6E5F9",
"oX c #B6E8FB",
"OX c #B9EBFE",
"+X c #C3C4C3",
"@X c #C7C6C6",
"#X c #D0C8CF",
"$X c #D5C5D4",
"%X c #D9CAD6",
"&X c #DDCCDB",
"*X c #D7D4D6",
"=X c #D5D4D9",
"-X c #DBD2DB",
";X c #FBD0C6",
":X c #E1C5DC",
">X c #E1CBDD",
",X c #FCC5D9",
"<X c #E2D6DF",
"1X c #FCD1D9",
"2X c #E4CCE0",
"3X c #F7CDE6",
"4X c #E4D5E2",
"5X c #E9D5E6",
"6X c #E4DAE3",
"7X c #E9DBE6",
"8X c #EDD5EA",
"9X c #EBDCEA",
"0X c #FAD7E9",
"qX c #F2DBED",
"wX c #E7C6F5",
"eX c #F4C4F2",
"rX c #F4CBF3",
"tX c #F8C9FC",
"yX c #EED4F4",
"uX c #F5D3F5",
"iX c #F8D7F5",
"pX c #F5DDF3",
"aX c #FADCF5",
"sX c #F5D3F9",
"dX c #F9D4FA",
"fX c #FBDCFB",
"gX c #E5E2E2",
"hX c #ECE3EB",
"jX c #EAE7EB",
"kX c #F2E2EE",
"lX c #EEE1F0",
"zX c #F6E3F4",
"xX c #F9E2F5",
"cX c #F5EBF4",
"vX c #F9ECF6",
"bX c #FCE4FB",
"nX c #F7E8FA",
"mX c #FEECFD",
"MX c #F5F5F5",
"NX c #F8F7F6",
"BX c #F7F5F9",
"VX c #FDF4FD",
"CX c #FEFDFE",
/* pixels */
"}.}.}.}.}.}.}.}.}.}.}.}.}.}.}.}.}.}.}.}.}.}.}.}.}.}.}.}.}.}.}.}.{.}.}.}.}.}.}.}.}.}.}.{. X.X[ { [ @.[ ).XX}.}.}.}.}.}.}.}.}.}.}.",
"}.}.}.}.}.}.}.}.}.}.}.}.}.}.}.}.}.}.}.}.}.}.}.}.}.}.}.}.}.}.}.}.}.}.}.}.}.}.}.}.}.}.{..Xp.s o. . .L J M :.}.{.}.}.}.}.}.}.}.}.}.",
"}.}.}.}.}.}.}.}.}.}.}.}.}.}.}.}.}.}.}.}.}.}.}.}.}.}.}.}.}.}.}.}.}.}.}.}.}.}.}.}.}.{.}.V g 0.: 9 w : 0Xw i  X{.}.}.}.}.}.}.}.}.}.",
"}.}.}.}.}.}.}.}.}.}.}.}.}.}.}.}.}.}.}.}.}.}.}.}.}.}.}.}.}.}.}.}.}.}.}.}.}.}.}.}.}.}.OXq 6 0X5 6 9 5 1Xe f  X{.}.}.}.}.}.}.}.}.}.",
"}.}.}.}.}.}.}.}.}.}.}.}.}.}.}.}.}.}.}.}.}.}.}.}.}.}.}.}.}.}.}.}.}.}.}.}.}.{.}.}.}._.) H $.0X,X0X1X0Xk ) >.}.{.}.{.}.}.}.}.}.}.}.",
"}.}.}.}.}.}.}.}.}.}.}.}.}.}.}.}.}.}.}.{.}.}.}.}.}.}.{.}.}.}.}.}.}.}.}.}.}.}.}.}.}._.* O.3XCXq.y.y.y.o ,.XX{.}.}.}.}.}.}.}.}.}.}.",
"}.}.}.}.}.}.}.}.}.}.}.}.}.}.}.}.}.}.}.}.}.}.}.}.}.}.}.}.}.}.}.}.}.}.}.}.}.}.}.}.|.{.O  .C.CXy.y.M.,XO ,.|.{.}.}.}.}.}.}.}.}.}.}.",
"}.}.}.}.}.}.}.}.}.}.}.}.}.}.}.{.}.}.}.}.}.}.}.}.}.}.}.}.}.}.}.}.}.}.}.}.}.}.{.|.p.N G c.3XV.y.M.9.B ( s.}.}.}.}.}.}.}.}.}.}.}.}.",
"}.}.}.}.}.}.}.}.}.}.}.}.}.}.}.}.}.}.}.}.}.}.}.}.}.}.}.}.}.}.}.}.}.}.{.}.}.}.{.|.@.$ n.kX0Xq.y.B.o.+ }.|.}.}.}.}.}.}.}.}.}.}.}.}.",
"}.}.}.}.}.}.}.}.}.}.}.}.}.}.}.}.}.}.}.}.}.}.}.}.}.}.}.}.}.}.}.}.}.}.}.}.}.{.{.oX>.o r.0XxXw.y.C.-.* `.{.}.}.}.}.}.}.}.}.}.}.}.}.",
"}.}.}.}.}.}.}.}.}.}.}.}.{.}.}.}.}.}.}.}.}.}.}.{.{.{.}.{.{.{.}.{.{.{.{.{.{.{.}.+.B L 3X,XB.y.M.I m ' ].}.}.}.}.}.}.}.}.}.}.}.}.}.",
"}.}.}.}.}.}.}.}.}.}.}.}.}.}.}.}.{.{.{.{.{.{.{..XXXXXXXXXXXXXXXXXoXoXoXoXoXXXoXp e ,XVXB.w.y.,X7 q OX[.}.}.}.}.}.}.}.}.}.}.{.}.}.",
"}.}.}.}.}.}.}.}.}.}.}.}.}.}.}.}..XoXoXoXXXXXOX:.' ] ' ` ` ` ` ` ' ` ` ` ` ` ,.8 6 B.BXV.e.y.3Xe n  X{.{.}.}.}.}.}.}.}.}.}.}.}.}.",
"}.}.}.}.}.}.}.{.{.{..X.X|.'.'.|.:.n n n n s s }  .| | | | | | | ..| | | | | ; b -.0XV.N.y.M.G C #.{.'. X.X.X{.{.{.}.}.}.}.}.}.}.",
"}.}.}.}.}.}.{..XoXXXu.p.] i p 0 ) r.4.7.7.7.4.7XgXgXgX6X6X6X6X6X<X<X6X6X<XcXx f.,XBXw.y.m.n.X e f d 0 ] p.p..XoX.X{.}.}.}.}.}.}.",
"}.}.}.}.}.}.oX:.) V B d X.-X*X#X<X7X<X7X-X<XgXrXR.R.R.cXNXBXNXNXNXNXNXNXNXCX& -.C.NXy.m.y.,X& d.%X#X<X| d m ( ) >.OX}.}.{.}.}.}.",
"}.}.}.|.}._.s | | X.kX<XhXgX6X6XjXCXCXCXCXCXE.H.G.K.W rXNXCXCXCXCXCXCXCX6X+.$.b.3XV.y.M.9.Y i.=XgX<XhXgX4X7XX.| H s ).}.|.}.}.}.",
"}.}.{.`.{ 0 +XjX5X6XMX6X8XmXP.~ ~.CXCXCXpX! K.~.W.! cXBXNXCXNXCXBXcXA.sXd.& B.pX0Xq.M.M.;.z CXVXdXK.nXcXhXMX6X7X6X7.0 [ ].{.{.}.",
"}.{.OX8 0 CXz.7XNXNXeXE.~ G.E.G.A.rXeXmXrXQ (.W.L./ ^.zXMXvXvXNXrXQ E.J.R l w.0X0Xw.N.M.f.l NX~.A.G.D.zXNXrXNXNXjXg.CX6 0 OX{.}.",
"}.`.M } 7.<X<XMXCXCXR.K.P./.W.(.E.Q W eXrXQ /.W.W./.G.K.D.D.D.L.L.J.(.R Z %.1X,XB.y.N.T Y i.nXcXpX~.NXNXrXE CXVXBX<X4X4.) V [.{.",
"}._.. _.CX=.CXCXCXNXCXD.! H.E./ S.zXrXvXuX! P.W./././.P.P.P.P.K.E./.tXc b ,XCX,Xe.M.,Xc Z CXrXcXvXvXA.A.D.P.D.f.R.CX-.CXt.. [.{.",
"}.'.g } k.&XgXcXvXxXpXxXzXaXF.A.~.vXNXeXeXNXL.H.H.H././.(././.(.W.G.J.;.O.-.+X;.8.8.8.O.6.~.G.L.eXzXpXcXeXW cXvXcXgX<Xd...M {.{.",
"}.{.OX9 6 CXg.>XxXpXxXxXaXzXcXcXvXxXD.H.G.L.MXeXT.~.G.G.S.~ S.~ K.eXF.T.S.U U 8.2.r.6.zXbXT.G.L.eXzXpXvXpX~.zXbX8Xh.CX6 0 OX{.{.",
"}.{. Xp 6 @X-X7X>X>X8X5XqXbXbXbXpXzXuXD.L.uXpXbXvXvXpXR.eXzX8XuXuXaXF.^ / /./ T.1X1XmXkXkXcXrXbXBXbXbX0X8XhX>X>X7X-Xk.6 s |.{.{.",
"}.{. X} C 3.2.k.+X#X7X4X5X>X>X>X8XbXvXbXbXvXbXpXxXpX^.K.F.^.xXvX3X~ J.W./.W.eX^ ~ 0XzXvXxXxXvX8X>X>X2X9X4X5X#X+Xk.<.4.N ' }.{.}.",
"}.}.{.XX@.. BX>Xj.x.7.2.#X6X7X6X7X>X>X>X>X>X>XqXpXkX~.H.H.T.qXzX0X;X^ ^ K.E./ F.V.4X>X>X>X>X:X7X6X7X6X@X2.4.x.l.&XNX  >.XX{.}.}.",
"}.}.{.|.#.$ 5XmXVXVX4X<X$X&.<.<.k.-X*X*X*X*X-X5X>X>XgX:XV.gX4X>X<X>X:X:XV.<XR.%X<X*X=X*X*X-X*X7.<.<.&.$X6X5XVXVXmX9X@ i.}.{.}.}.",
"}.}.{.|.#.O 7XdXdXdXbXbXbXnXbXVX<X=.2.2.4.1.1.@X+X+X+X+X+X_.+X+X+X+X+X@X_.+X@X+Xj.1.4.2.2.2.1.5XmXvXbXbXmXbXdXdXfX9XO ,. X{.}.}.",
"}.}.{. X@.# lXdXdXdXaXxXfXfXfXfXbXVXVXVXVXmXVX&Xk.l.l.l.l.l.l.l.l.k.l.l.r.@Xl.k.2XVXVXmXVXmXVXbXfXfXfXfXxXfXdXdXfXhX@ >. X{.}.}.",
"}.}.}.}.`.s.; 7.mXfXbXbXbXbXbXbXfXfXxXbXbXbXxXmXmXmXVXmXmXmXmXVXmXmXmXVXVXVXmXmXbXaXfXfXfXfXdXxXbXbXfXbXbXbXfXVXt.; a.`.}.}.}.}.",
"}.}.}.}.}.[.# &.wXU.bXbXbXbXbXbXbXbXbXbXbXbXbXbXaXfXfXaXfXfXaXaXfXfXsXfXaXfXfXfXbXbXbXbXbXbXbXbXbXbXbXmXmXmXQ.wX<.@ {.}.}.}.}.}.",
"}.}.}.}.}.`.; &.wXwXY.yXbXbXbXbXbXbXbXbXbXbXbXbXbXbXbXbXbXbXbXbXbXbXmXbXbXbXbXbXbXbXbXbXbXbXmXbXbXbXxXbXyXY.Q.5X&.% ].}.}.}.}.}.",
"}.}.}.}.}.`.o 3.mXtXdXxXxXfXfXfXfXbXbXbXbXbXbXbXbXbXbXbXbXbXbXbXvXbXbXmXbXbXmXbXbXbXbXbXbXbXbXbXdXdXfXbXxXdXtXmX5.# '.}.}.}.}.}.",
"}.}.}.}.}.'.V H %.U.I.sXbXbXbXbXxXfXbXbXbXmXbXfXfXbXfXfXfXfXbXfXfXfXfXfXfXfXbXfXxXfXdXfXfXdXdXbXbXvXbXbXsXI.!.+.B M '.}.}.}.}.}.",
"}.}.}.}.}.].OXq 0 BXQ.sXbXfXfXfXbXxXbXmXbXbXvXbXbXfXfXbXbXbXbXfXbXfXxXfXfXfXfXbXbXbXbXbXbXbXbXfXfXfXfXbXaXQ.CX6 q OX{.}.}.}.}.}.",
"}.}.}.}. X].}.n e wXwXfXbXbXbXbXfXfXbXbXbXbXbXbXbXbXbXbXfXbXbXbXbXbXbXbXbXbXbXxXbXdXbXdXfXdXbXbXbXbXmXsXyXwXwXe n }.{.{.}.}.}.}.",
"}.}.}.}.}.{. Xp e CXY.wXfXfXbXfXbXbXbXbXbXbXbXfXdXbXfXfXbXfXfXfXfXfXfXfXfXfXfXfXfXbXbXbXbXbXbXxXfXfXbXwXY.I.CXe v  X{.}.}.}.}.}.",
"}.}.}.}.}.{..Xs d wXiXdXdXbXbXfXfXfXvXbXbXbXmXbXbXbXbXbXbXbXbXbXbXbXbXbXbXbXbXvXbXfXfXfXfXfXfXfXfXbXxXfXfXdXwXe n  X{.}.}.}.}.}.",
"}.}.}.}.}.}.{._.@.* U.Z.!.bXfXbXbXxXbXbXbXmXnXfXfXbXdXfXdXfXfXfXfXfXfXfXfXdXdXfXfXxXbXbXbXbXbXbXbXbXmX!.Z.U.@ +.'.{.{.}.}.}.}.}.",
"}.}.}.}.}.}.{..X#.@ 9XbXbXfXfXfXfXbXbXbXbXbXbXbXbXbXbXbXvXbXbXbXbXbXbXbXmXbXbXmXbXbXfXfXxXfXfXfXfXfXfXfXbXkXO i..X{.}.}.}.}.}.}.",
"}.}.}.}.}.}.{. X#.* b.Z.wXnXbXmXxXbXbXbXbXbXbXbXbXfXfXdXfXfXfXdXaXdXfXfXfXfXfXfXfXfXxXbXfXfXbXbXbXbXbX!.Z.:X* ,.|.{.}.}.}.}.}.}.",
"}.}.}.{.}.}.{. X@.O nXsX!.Y.fXfXfXxXbXbXbXbXbXbXbXbXbXbXbXbXbXbXbXnXbXbXbXbXbXbXbXbXbXfXbXbXxXfXbXdXY.!.fXbX. ,.|.{.}.}.}.}.}.}.",
"}.}.}.}.}.}.}.|.p.V  .&XfXfXbXbXbXfXfXbXbXbXbXmXbXfXfXfXfXfXfXfXfXfXfXfXfXfXfXfXfXfXdXbXfXfXfXxXbXbXfXbX>X .M a.|.{.|.}.}.}.}.}.",
"}.}.}.}.}.}.}.}.|.|.X &.bXdXxXbXbXbXbXbXbXbXbXbXbXfXbXbXfXbXbXfXbXfXbXxXxXfXbXfXxXbXmXbXbXmXbXbXbXbXsXmX&.X }.|.{.}.{.}.}.}.}.}.",
"}.}.}.}.}.}.}.}.{.`.= <.bXdXxXbXmXbXbXbXbXbXbXbXbXmXbXbXbXmXbXbXbXbXbXmXbXbXbXmXbXbXbXbXbXbXbXbXbXnXsXmX<.# [.{.}.}.}.}.}.}.}.}.",
"}.}.}.}.}.}.}.}.}.`.# <.bXsXfXbXbXbXbXbXmXbXbXbXbXbXbXbXbXbXbXbXbXbXbXbXbXbXbXbXbXbXbXbXmXbXbXbXbXbXdXmX<.# {.}.}.}.}.}.}.}.}.}.",
"}.}.}.}.}.}.}.}.}.`.; 4.xXsXfXmXmXxXbXbXbXbXbXbXbXbXbXbXbXbXbXbXbXmXbXbXbXbXbXbXbXbXbXbXbXbXbXmXmXiXuXzX<.; '.}.}.}.}.}.}.}.}.}.",
"}.}.}.}.}.{.}.}.{.{.`.q g CXb.v.9XVXbXbXmXbXbXbXmXbXbXbXbXbXmXbXbXbXbXbXbXbXVXVXVXxXbXbXbXbXmXzXh.h P 9 n `.{.{.}.}.}.}.}.}.}.}.",
"}.}.}.}.}.}.}.}.}.{. Xv 9 h.1 < k ;.vXbXbXbXbXbXbXxXbXbXbXbXbXbXbXbXbXmXVXCX;.*.v.CXbXvXbXxXCXK 3 D P , n  X}.}.}.}.}.}.}.}.}.}.",
"}.}.}.}.}.}.}.}.{.{.{.M - r 3 r 3 > nXbXmXVXbXqXmXVXbXbXbXbXbXbXbXbXxXVX%Xa 3 3 r G nXbXbXVXVX7X0.j K , n |.}.}.}.}.}.}.}.}.}.}.",
"{.}.}.}.}.}.}.{.}.{. Xq e CXD k *.nXbXmXxX>X .L -.&XbXbXbXbXbXbXmXVXVXVXz.u r 2 r k zXVXmXv.v.mXbXyXVXw q .X{.}.}.}.}.}.}.}.}.}.",
"}.}.}.}.}.}.}.}.}.{. X@._ | mXbXVXVXVXVX$Xg o. .G - vXbXbXmXbXCXqX*.*.kXCXVX*.*.z.CXVXz.L < 1 K g.mX| N @.}.{.}.}.}.}.}.}.}.}.}.",
"}.}.}.}.}.}.}.}.}.}.{.oX#.. 6XfXb.K K 2XvX-X . .=.$XmXVXbXfXVX*.t 2 3 r $.VXCXCXvXpXCXG > 4 y < G BX  >.oX{.}.}.}.}.}.}.}.}.}.}.",
"}.}.}.}.}.}.}.}.}.}.{.|.#.$ MXI r S A L t.VXxXzXVXCX2Xv.qXVXVXo.u 3 3 r o.VX&XI j G $XcXv.G G z.nX7X@ i.}.{.}.}.}.}.}.}.}.}.}.}.",
"}.}.}.}.}.}.}.}.}.}.{.}.@.O cXz.%.u r -.gXmXbXmXpXl.h u K 6.bXCX9X*.=.5XCXnX1 A S F > z.CXVXCXVXbXlXO i.|.{.}.}.}.}.}.{.}.}.}.}.",
"}.}.}.}.}.}.}.}.}.}.{..X>.; &XbXdXb.-XcXcXbXmXVX&X .A S A t nXmXVXVXVXVXmXvX4X$.D F $XzXvXzXI K ;.9X$ i.|.}.}.}.}.}.}.}.}.}.}.}.",
"}.}.}.}.}.}.}.}.}.}.}.}.[._.@ 1.bXbX5XG t $.>XxXmXmX$.L 6.BXmX7X0.u j 0.9XbXVXVXCXCXbXCXv.3 S F u 8 s.[.}.}.}.}.}.}.}.}.}.}.}.}.",
"}.}.}.}.}.}.}.}.}.}.}.}.}.].@ <.mXpX- 2 j X.w $XmXbXCXCXVXbXCXK 4 F F 2 K CXVXz.$.;.BXVX2X;.S S u ; _.|.{.}.}.}.}.}.}.}.}.}.}.{.",
"}.}.}.}.}.}.}.}.}.}.}.}.{.'.; 3.aXsX2XK k X.>XbXmXzXI G ;.vXbXhXh.D D g.hXcXG r 2 4 u c.mXbXb.x.X.5 `.{.}.}.}.}.}.}.}.}.}.}.}.}.",
"}.}.}.}.}.}.}.}.}.}.}.}.}.[.|.9 e CXfXfXpXnXmXVX&X .S S A u nXbXmXxXnXmXmXzXG t 1 4 a c.bXtXCXg 9 {.{.}.}.}.}.}.}.}.}.}.}.}.}.}.",
"}.}.}.}.}.}.}.}.}.}.}.}.}.{.|.:.V L pXbXbXmXmXVXpXx.j u K 6.uXdXdXdXdXtXsXdXmXb.;.;.VXmXbXaXJ M #.|.{.}.}.}.}.}.}.{.}.}.}.}.}.}.",
"}.}.}.}.}.}.}.}.}.}.}.}.}.}.{..X'.] B i } 5X&X&XzXCXrX8XfXCXbXbXbXbXbXbXbXbXbXdX8X8X2XL f N ] `.XX}.}.}.}.}.}.}.}.}.}.}.}.}.}.}.",
"}.}.}.}.}.}.}.}.}.}.}.}.}.}.|.{.}..X_.'.:.n M f B t.5.d.6.;.5.6.;.6.d.6.5.5.6.B v M M @.'._. X|.{.}.}.}.}.}.}.}.}.}.}.}.}.}.}.}.",
"}.}.}.}.{.}.}.}.}.}.}.}.}.}.}.{.}.}.}. X X X XoXs.C C C ) ) C ) ) ) C C C ' C p.XX|.|. X|.|.}.}.}.}.}.}.}.}.}.}.}.}.}.}.}.}.}.}."
};
