/* XPM */
static char *result[] = {
/* columns rows colors chars-per-pixel */
"64 64 224 2 ",
"   c black",
".  c #030304",
"X  c #100301",
"o  c #110301",
"O  c #120301",
"+  c #130301",
"@  c #140401",
"#  c #150401",
"$  c #170401",
"%  c #170501",
"&  c #170502",
"*  c #120705",
"=  c #180502",
"-  c #190502",
";  c #190602",
":  c #140805",
">  c #190A06",
",  c #111517",
"<  c #121719",
"1  c #1E1718",
"2  c #14191B",
"3  c #151A1D",
"4  c #2D0D05",
"5  c #2D0E05",
"6  c #2E0E05",
"7  c #300E05",
"8  c #310E05",
"9  c #311006",
"0  c #331106",
"q  c #331107",
"w  c #341106",
"e  c #351206",
"r  c #361206",
"t  c #371206",
"y  c #31150C",
"u  c #34170D",
"i  c #37180E",
"p  c #251817",
"a  c #211718",
"s  c #211818",
"d  c #221818",
"f  c #231918",
"g  c #20191A",
"h  c #221A1A",
"j  c #231A1A",
"k  c #241918",
"l  c #261918",
"z  c #251B1A",
"x  c #261B1A",
"c  c #261F1D",
"v  c #251F1E",
"b  c #261F1E",
"n  c #262F34",
"m  c #273136",
"M  c #A24525",
"N  c #A54627",
"B  c #A4482A",
"V  c #B54D29",
"C  c #B64D28",
"Z  c #B74D29",
"A  c #B44E2B",
"S  c #B54F2B",
"D  c #B44E2C",
"F  c #B4502E",
"G  c #BB502A",
"H  c #BA512D",
"J  c #BB512D",
"K  c #BC522D",
"L  c #BD522D",
"P  c #BF522C",
"I  c #BE522E",
"U  c #BE532E",
"Y  c #C0532E",
"T  c #C05733",
"R  c #C65631",
"E  c #C85631",
"W  c #C95732",
"Q  c #CA5732",
"!  c #CD5730",
"~  c #CB5832",
"^  c #CE5830",
"/  c #CE5B33",
"(  c #C95834",
")  c #C95934",
"_  c #C95935",
"`  c #CB5A34",
"'  c #CB5A35",
"]  c #D15A31",
"[  c #D25A31",
"{  c #D25B31",
"}  c #D15A32",
"|  c #D15B32",
" . c #D25B32",
".. c #D65C32",
"X. c #D65D33",
"o. c #D15C34",
"O. c #D25C34",
"+. c #D15F37",
"@. c #D25F37",
"#. c #D45D34",
"$. c #D65E35",
"%. c #DC5F34",
"&. c #D25F38",
"*. c #DA6036",
"=. c #DB6036",
"-. c #DE6035",
";. c #DC6036",
":. c #DC6037",
">. c #DE6137",
",. c #D76139",
"<. c #D7623A",
"1. c #D8633A",
"2. c #E16135",
"3. c #E16237",
"4. c #E16238",
"5. c #E16338",
"6. c #E26338",
"7. c #E36338",
"8. c #E56438",
"9. c #E56439",
"0. c #E66439",
"q. c #E66539",
"w. c #E76539",
"e. c #E8653A",
"r. c #E8663A",
"t. c #ED6638",
"y. c #ED6739",
"u. c #EE6638",
"i. c #EF6739",
"p. c #EF693C",
"a. c #F36B3E",
"s. c #F66C3E",
"d. c #FA6C3C",
"f. c #FA6C3D",
"g. c #F86D3F",
"h. c #F96D3F",
"j. c #FA6D3E",
"k. c #FA6D3F",
"l. c #F96E3F",
"z. c #FA6E3F",
"x. c #FB6E3F",
"c. c #FC6D3D",
"v. c #FD6D3D",
"b. c #FE6E3E",
"n. c #FF6E3E",
"m. c #FF6E3F",
"M. c #FF703F",
"N. c #E36840",
"B. c #E36943",
"V. c #EF6D41",
"C. c #F96E40",
"Z. c #FA6E40",
"A. c #FB6E40",
"S. c #FC6E40",
"D. c #EF7349",
"F. c #F67043",
"G. c #F97243",
"H. c #FC7040",
"J. c #FD7040",
"K. c #FE7040",
"L. c #FF7040",
"P. c #FE7041",
"I. c #FF7041",
"U. c #FF7241",
"Y. c #FF7042",
"T. c #FF7242",
"R. c #FF7342",
"E. c #FF7243",
"W. c #FF7343",
"Q. c #F97345",
"!. c #FC7344",
"~. c #FF7445",
"^. c #FC7446",
"/. c #FC7547",
"(. c #FF7647",
"). c #FF7649",
"_. c #FF7749",
"`. c #FD754B",
"'. c #FD764B",
"]. c #FF774A",
"[. c #FF764C",
"{. c #FF784A",
"}. c #FF7B50",
"|. c #FF7C50",
" X c #C87C64",
".X c #C97F67",
"XX c #CB7F68",
"oX c #E3886B",
"OX c #E88A6C",
"+X c #E88B6C",
"@X c #E88B6D",
"#X c #F38F6E",
"$X c #EC9277",
"%X c #F69070",
"&X c #F99270",
"*X c #FF9473",
"=X c #FF9573",
"-X c #FF9574",
";X c #FF9775",
":X c #F99778",
">X c #FD9979",
",X c #FD997A",
"<X c #FF997A",
"1X c #FF9A7A",
"2X c #FF9A7B",
"3X c #FF9B7B",
"4X c #86A7B7",
"5X c #87A7B7",
"6X c #88A7B7",
"7X c #EF9088",
"8X c #FC9D80",
"9X c #FC9E80",
"0X c #FF9E80",
"qX c #FF9F81",
"wX c #FF9F82",
"eX c #F29288",
"rX c #F39289",
"tX c #FFA082",
"yX c #98BED0",
"uX c #99BFD2",
"iX c #9BC1D4",
"pX c #9CC3D6",
"aX c #AAD5E9",
"sX c #ADD8ED",
/* pixels */
"sXsXsXsXsXsXsXsXsXsXsXsXsXsXsXsXsXsXsXsXsXsXsXsXsXsXsXsXsXsXsXsXsXsXsXsXsXsXsXsXsXsXsXsXsXsXsXsXsXsXsXsXsXsXsXsXsXsXsXsXsXsXsXsX",
"sXsXsXsXsXsXsXsXsXsXsXsXsXsXsXsXsXsXsXsXsXsXsXsXsXsXsXsXsXsXsXsXsXsXsXsXsXsXsXsXsXsXsXsXsXsXsXsXsXsXsXsXsXsXsXsXsXsXsXsXsXsXsXsX",
"sXsXsXsXsXsXsXsXsXsXsXsXsXsXsXsXsXsXsXsXsXsXsXsXsXsXsXsXsXsXsXsXsXsXsXsXsXsXsXsXsXsXsXsXsXsXsXsXsXsXsXsXsXsXsXsXsXsXsXsXsXsXsXsX",
"sXsXsXsXsXsXsXsXsXsXsXsXsXsXsXsXsXsXsXsXsXsXsXsXsXsXsXsXsXsXsXsXsXsXsXsXsXsXsXsXsXsXsXsXsXsXsXsXsXsXsXsXsXsXsXsXsXsXsXsXsXsXsXsX",
"sXsXsXsXsXsXsXsXsXsXsXsXsXsXsXsXsXsXsXsXsXsXsXsXsXsXsXsXsXsXsXsXsXsXsXsXsXsXsXsXsXsXsXsXsXsXsXsXsXsXsXsXsXsXsXsXsXsXsXsXsXsXsXsX",
"sXsXsXsXsXsXsXsXsXsXsXsXsXsXsXsXsXsXsXsXsXsXsXsXsXsXsXsXsXsXsXsXsXsXsXsXsXsXsXsXsXsXsXsXsXsXsXsXsXsXsXsXsXsXsXsXsXsXsXsXsXsXsXsX",
"sXsXsXsXsXsXsXsXsXsXsXsXsXsXsXsXsXsXsXsXsXsXsXsXsXsXsXsXsXsXsXsXsXsXsXsXsXsXsXsXsXsXsXsXsXsXsXsXsXsXsXsXsXsXsXsXsXsXsXsXsXsXsXsX",
"sXsXsXsXsXsXsXsXsXsXsXsXsXsXsXsXsXsXsXsXsXsXsXsXsXsXsXsXsXsXsXsXsXsXsXsXsXsXsXsXsXsXsXsXsXsXsXsXsXsXsXsXsXsXsXsXsXsXsXsXsXsXsXsX",
"sXsXsXsXsXsXsXsXsXsXsXsXsXsXsXsXsXsXsXsXsXsXsXsXsXsXsXsXsXsXsXsXsXsXsXsXsXsXsXsXsXsXsXsXsXsXsXsXsXsXsXsXsXsXsXsXsXsXsXsXsXsXsXsX",
"sXsXsXsXsXsXsXsXsXsXsXsXsXsXsXsXsXsXsXsXsXsXsXsXsXsXsXsXsXsXsXsXsXsXsXsXsXsXsXsXsXsXsXsXsXsXsXsXsXsXsXsXsXsXsXsXsXsXsXsXsXsXsXsX",
"sXsXsXsXsXsXsXsXsXsXsXsXsXsXsXsXsXsXsXsXsXsXsXsXsXsXsXsXsXsXsXsXsXsXsXsXsXsXsXsXsXsXsXsXsXsXsXsXsXsXsXsXsXsXsXsXsXsXsXsXsXsXsXsX",
"sXsXsXsXsXsXsXsXsXsXsXsXsXsXsXsXsXsXsXsXsXsXsXsXsXsXsXsXsXsXsXsXsXsXsXsXsXsXsXsXsXsXsXsXsXsXsXsXsXsXsXsXsXsXsXsXsXsXsXsXsXsXsXsX",
"sXsXsXsXsXsXsXsXsXsXsXsXsXsXsXsXsXsXsXsXsXsXsXsXsXsXsXsXsXsXsXsXsXsXsXsXsXsXsXsXsXsXsXsXsXsXsXsXsXsXsXsXsXsXsXsXsXsXsXsXsXsXsXsX",
"sXsXsXsXsXsXsXsXsXsXsXsXsXsXsXsXsXsXsXsXsXsXsXsXsXsXsXsXsXsXsXsXsXsXsXsXsXsXsXsXsXsXsXsXsXsXsXsXsXsXsXsXsXsXsXsXsXsXsXsXsXsXsXsX",
"sXsXsXsXsXsXsXsXsXsXsXsXsXsXsXsXsXsXsXsXsXsXsXsXsXsXsXsXsXsXsXsXsXsXsXsXsXsXsXsXsXsXsXsXsXsXsXsXsXsXsXsXsXsXsXsXsXsXsXsXsXsXsXsX",
"sXsXsXsXsXsXsXsXsXsXsXsXsXsXsXaXiXiXaXsXsXsXsXsXsXsXsXsXsXaXiXiXaXsXsXsXsXsXsXsXsXsXsXsXsXsXsXsXsXsXsXsXsXsXsXsXsXsXsXsXsXsXsXsX",
"sXsXsXsXsXsXsXsXsXsXsXsXsXsXsXpXn n pXsXsXsXsXsXsXsXsXsXsXpXn n pXsXsXsXsXsXsXsXsXsXsXsXsXsXsXsXsXsXsXsXsXsXsXsXsXsXsXsXsXsXsXsX",
"sXsXsXsXsXsXsXsXsXsXsXsXsXaXpX6Xp p 6XpXaXsXsXsXsXsXsXaXpX6Xp p 6XpXaXsXsXsXsXsXsXsXsXsXsXsXsXsXsXsXsXsXsXsXsXsXsXsXsXsXsXsXsXsX",
"sXsXsXsXsXsXsXsXsXsXsXsXsXiXm l ` ` k m pXsXsXsXsXsXsXpXm k ` ` l m iXsXsXsXsXsXsXsXsXsXsXsXsXsXsXsXsXsXsXsXsXsXsXsXsXsXsXsXsXsX",
"sXsXsXsXsXsXsXsXsXsXsXsXsXyX2 - 9.e.w d 5XuXyXyXyXyXuX5Xd w r.9.- 2 yXsXsXsXsXsXsXsXsXsXsXsXsXsXsXaXiXyXyXiXaXsXsXsXsXsXsXsXsXsX",
"sXsXsXsXsXsXsXsXsXsXsXsXsXuX3 & 5.x.{ A j 3 3 3 3 3 3 j F O.A.5.& 3 uXsXsXsXsXsXsXsXsXsXsXsXsXsXsXpXm 2 2 m pXsXsXsXsXsXsXsXsXsX",
"sXsXsXsXsXsXsXsXsXsXsXaXpX6Xz t 9.K.i.] 6 X O O = = o 6 o.p.P.9.w h 5XpXaXsXsXsXsXsXsXsXsXsXsXaXpX6Xc > ; l 6XpXaXsXsXsXsXsXsXsX",
"sXsXsXsXsXsXsXsXsXsXsXiXm l _ w.A.I.J.a.U S S J :.:.H I a.J.I.h.O.F f m iXsXsXsXsXsXsXsXsXsXsXiXm c .XoXN.) l m iXsXsXsXsXsXsXsX",
"sXsXsXsXsXsXsXsXsXsXsXyX2 - 7.R.I.I.I.Z.;.$.$.;.H.H.=.=.Z.I.I.H.p./ # 2 yXsXsXsXsXsXsXsXsXsXsXyX2 > oX;X{.7.- 2 yXsXsXsXsXsXsXsX",
"sXsXsXsXsXsXsXsXsXsXsXuX3 & 4.T.U.U.I.P.Z.l.A.H.I.P.Z.Z.I.U.I.I.P.>.% 3 uXsXsXsXsXsXsXsXsXsXsXyX2 ; N.{.W.6.- 3 yXsXsXsXsXsXsXsX",
"sXsXsXsXsXsXsXsXsXaXpX6Xz t 9.J.9.9.A.I.I.H.9.9.A.I.I.H.9.9.A.I.T.9.w h 5XuXyXyXyXyXyXiXaXsXsXiXm l ( 0.g.:.= 3 yXsXsXsXsXsXsXsX",
"sXsXsXsXsXsXsXsXsXiXm l _ w.J.8.0 0 9.T.R.q.0 0 q.R.T.9.0 0 8.I.I.h.O.F j 3 3 3 3 3 2 m pXsXsXaXpX6Xx 9 Y K O 3 yXsXsXsXsXsXsXsX",
"sXsXsXsXsXsXsXsXsXyX2 - 7.W.[.B.q 0 9.J.q.W 7 7 W q.J.9.0 q B.[.T.H.p.o.6 o = = O O = l 6XpXaXsXsXuX3 o K L O 3 yXsXsXsXsXsXsXsX",
"sXsXsXsXsXsXsXsXsXyX3 = 3.[.rX7XB.8.J.9.0 7 ~ ~ 7 0 9.J.8.B.7XrX'.L.J.a.U J :.:.J J >._ k m pXsXsXuX3 = >.>.= 3 yXsXsXsXsXsXsXsX",
"sXsXsXsXsXsXsXsXsXyX3 = 3.[.eXrX[.I.T.9.0 0 r.r.0 0 9.T.I.[.rXeX`.L.I.C.$.$.A.A.$.$.J.w.r k 6XuXuX4X< = >.>.= 3 yXsXsXsXsXsXsXsX",
"sXsXsXsXsXsXsXsXsXyX3 = 4.E.`.`.T.I.I.A.9.9.S.S.9.9.A.I.I.T.`.`.T.I.I.h.#.#.C.C.#.#.l.H.w.) z 3 3 < . o U U O 2 yXsXsXsXsXsXsXsX",
"sXsXsXsXsXsXsXsXsXyX3 = 5.U.L.L.I.I.I.I.U.U.I.I.U.U.I.I.I.I.L.L.I.I.I.Z.*.*.Z.Z.*.*.Z.I.R.w.t O     + 5 N B s m iXsXsXsXsXsXsXsX",
"sXsXsXsXsXsXsXsXsXyX3 = 5.T.I.I.I.I.I.I.I.I.I.I.I.I.I.I.I.I.I.I.I.I.I.P.Z.Z.P.P.Z.Z.P.I.I.A.w.R O O E ~ 4 g 5XpXaXsXsXsXsXsXsXsX",
"sXsXsXsXsXsXsXsXsXyX3 = 5.T.I.I.I.I.I.I.I.I.I.I.I.I.I.I.I.I.I.I.I.I.I.I.I.I.I.I.I.I.I.I.I.I.R.7.& & 9.9.& 3 uXsXsXsXsXsXsXsXsXsX",
"sXsXsXsXsXsXsXsXsXyX3 = 5.T.I.I.I.I.I.I.I.I.I.I.I.I.I.I.I.I.I.I.I.I.I.I.I.I.I.I.I.I.I.I.I.I.T.4.@ @ 9.9.- 2 yXsXsXsXsXsXsXsXsXsX",
"sXsXsXsXsXsXsXsXsXyX3 = 5.T.I.I.I.T.).).T.I.I.I.I.I.I.I.I.I.I.I.I.I.I.I.I.I.I.I.I.I.I.I.I.I.U.9.e 9 ~ ' l m iXsXsXsXsXsXsXsXsXsX",
"sXsXsXsXsXsXsXsXsXyX3 - 6.T.I.I.L.(.-X-X(.L.I.I.I.I.I.I.I.I.I.I.I.I.I.I.I.I.I.I.I.I.I.I.I.I.I.A.q.Q 0 x 6XpXaXsXsXsXsXsXsXsXsXsX",
"sXsXsXsXsXsXsXsXsXyX3 = ;.S.P.T.(.|.3X3X|.(.T.I.I.I.I.I.I.I.I.I.I.I.I.I.I.I.I.I.I.I.I.I.I.I.I.I.R.7.& 3 uXsXsXsXsXsXsXsXsXsXsXsX",
"sXsXsXsXsXsXsXsXsXyX3 O G %.j.(.*X2X0X0X2X*X(.L.I.I.I.I.I.I.I.I.I.I.I.I.I.I.I.I.I.I.I.I.I.I.I.I.T.5.= 3 yXsXsXsXsXsXsXsXsXsXsXsX",
"sXsXsXsXsXsXsXsXsXyX3 O V X.Q.|.2XtXqXqXtX2X|.(.T.I.I.I.I.I.I.I.I.I.I.I.I.I.I.I.I.I.I.I.I.I.I.I.T.5.= 3 yXsXsXsXsXsXsXsXsXsXsXsX",
"sXsXsXsXsXsXsXsXsXyX3 O C ,.&X3X0XqXqXqXqX0X2X=X(.I.I.I.I.I.I.I.I.I.I.I.I.I.I.I.I.I.I.I.I.I.I.I.T.5.- 3 yXsXsXsXsXsXsXsXsXsXsXsX",
"sXsXsXsXsXsXsXsXsXyX3 O C <.:XtXqXqXqXqX8X8XwX1X_.I.I.I.I.I.I.I.I.I.I.I.I.I.I.I.I.I.I.I.I.I.I.I.K.>.= 3 yXsXsXsXsXsXsXsXsXsXsXsX",
"sXsXsXsXsXsXsXsXsXyX2 O Z 1.:XtXqXqXqX8X$X$X9X1X).L.I.I.I.I.I.I.I.I.I.I.I.I.I.I.I.I.I.I.I.I.I.J.i.^ # 2 yXsXsXsXsXsXsXsXsXsXsXsX",
"sXsXsXsXsXsXsXsXsXiXm a M T #X,X0XqXqX8X$X$X9X2X}.(.Y.I.I.I.I.I.I.I.I.I.I.I.I.I.I.I.I.I.I.I.J.s.[ D f m iXsXsXsXsXsXsXsXsXsXsXsX",
"sXsXsXsXsXsXsXsXsXaXpX5X1 6 +.D.,XtXqXqX9X9XqXqX3X=X~.n.I.I.I.I.m.n.n.n.n.m.I.I.I.I.I.I.I.J.i.[ 8 d 5XpXaXsXsXsXsXsXsXsXsXsXsXsX",
"sXsXsXsXsXsXsXsXsXsXsXpXm d A @.%X>X<X<X1X1X<X<X2X*X!.c.L.I.I.L.n.n.c.c.n.b.k.h.h.z.K.I.J.s.[ A d m pXsXsXsXsXsXsXsXsXsXsXsXsXsX",
"sXsXsXsXsXsXsXsXsXsXsXaXpX5Xd 9 &.V./.).].].].].).^.y.u.b.M.M.M.M.b.u.t.v.d.%.....%.f.v.i.[ 8 d 5XpXaXsXsXsXsXsXsXsXsXsXsXsXsXsX",
"sXsXsXsXsXsXsXsXsXsXsXsXsXpXm d A  .Q.^.9.3.3.9.^.Q.| ! -.2.2.2.2.-.! } G.F.P V V P F.G. .A d m pXsXsXsXsXsXsXsXsXsXsXsXsXsXsXsX",
"sXsXsXsXsXsXsXsXsXsXsXsXsXaXpX5Xh u @X@Xi $ $ i @X@Xu + = - = = - = + u +XOXy X X y OX+Xu h 5XpXaXsXsXsXsXsXsXsXsXsXsXsXsXsXsXsX",
"sXsXsXsXsXsXsXsXsXsXsXsXsXsXsXuX3 *  XXXv 3 3 v XX X* . < 3 3 3 3 < . *  XXXb 3 3 b XX X* 3 uXsXsXsXsXsXsXsXsXsXsXsXsXsXsXsXsXsX",
"sXsXsXsXsXsXsXsXsXsXsXsXsXsXsXyX2   : c 6XuXuX6Xc :   , 4XuXyXyXuX4X,   : c 6XuXuX6Xc :   2 yXsXsXsXsXsXsXsXsXsXsXsXsXsXsXsXsXsX",
"sXsXsXsXsXsXsXsXsXsXsXsXsXsXsXiXm 2 2 m pXsXsXpXm 2 2 m pXsXsXsXsXpXm 2 2 m pXsXsXpXm 2 2 m iXsXsXsXsXsXsXsXsXsXsXsXsXsXsXsXsXsX",
"sXsXsXsXsXsXsXsXsXsXsXsXsXsXsXaXiXyXyXiXaXsXsXaXiXyXyXiXaXsXsXsXsXaXiXyXyXiXaXsXsXaXiXyXyXiXaXsXsXsXsXsXsXsXsXsXsXsXsXsXsXsXsXsX",
"sXsXsXsXsXsXsXsXsXsXsXsXsXsXsXsXsXsXsXsXsXsXsXsXsXsXsXsXsXsXsXsXsXsXsXsXsXsXsXsXsXsXsXsXsXsXsXsXsXsXsXsXsXsXsXsXsXsXsXsXsXsXsXsX",
"sXsXsXsXsXsXsXsXsXsXsXsXsXsXsXsXsXsXsXsXsXsXsXsXsXsXsXsXsXsXsXsXsXsXsXsXsXsXsXsXsXsXsXsXsXsXsXsXsXsXsXsXsXsXsXsXsXsXsXsXsXsXsXsX",
"sXsXsXsXsXsXsXsXsXsXsXsXsXsXsXsXsXsXsXsXsXsXsXsXsXsXsXsXsXsXsXsXsXsXsXsXsXsXsXsXsXsXsXsXsXsXsXsXsXsXsXsXsXsXsXsXsXsXsXsXsXsXsXsX",
"sXsXsXsXsXsXsXsXsXsXsXsXsXsXsXsXsXsXsXsXsXsXsXsXsXsXsXsXsXsXsXsXsXsXsXsXsXsXsXsXsXsXsXsXsXsXsXsXsXsXsXsXsXsXsXsXsXsXsXsXsXsXsXsX",
"sXsXsXsXsXsXsXsXsXsXsXsXsXsXsXsXsXsXsXsXsXsXsXsXsXsXsXsXsXsXsXsXsXsXsXsXsXsXsXsXsXsXsXsXsXsXsXsXsXsXsXsXsXsXsXsXsXsXsXsXsXsXsXsX",
"sXsXsXsXsXsXsXsXsXsXsXsXsXsXsXsXsXsXsXsXsXsXsXsXsXsXsXsXsXsXsXsXsXsXsXsXsXsXsXsXsXsXsXsXsXsXsXsXsXsXsXsXsXsXsXsXsXsXsXsXsXsXsXsX",
"sXsXsXsXsXsXsXsXsXsXsXsXsXsXsXsXsXsXsXsXsXsXsXsXsXsXsXsXsXsXsXsXsXsXsXsXsXsXsXsXsXsXsXsXsXsXsXsXsXsXsXsXsXsXsXsXsXsXsXsXsXsXsXsX",
"sXsXsXsXsXsXsXsXsXsXsXsXsXsXsXsXsXsXsXsXsXsXsXsXsXsXsXsXsXsXsXsXsXsXsXsXsXsXsXsXsXsXsXsXsXsXsXsXsXsXsXsXsXsXsXsXsXsXsXsXsXsXsXsX",
"sXsXsXsXsXsXsXsXsXsXsXsXsXsXsXsXsXsXsXsXsXsXsXsXsXsXsXsXsXsXsXsXsXsXsXsXsXsXsXsXsXsXsXsXsXsXsXsXsXsXsXsXsXsXsXsXsXsXsXsXsXsXsXsX",
"sXsXsXsXsXsXsXsXsXsXsXsXsXsXsXsXsXsXsXsXsXsXsXsXsXsXsXsXsXsXsXsXsXsXsXsXsXsXsXsXsXsXsXsXsXsXsXsXsXsXsXsXsXsXsXsXsXsXsXsXsXsXsXsX",
"sXsXsXsXsXsXsXsXsXsXsXsXsXsXsXsXsXsXsXsXsXsXsXsXsXsXsXsXsXsXsXsXsXsXsXsXsXsXsXsXsXsXsXsXsXsXsXsXsXsXsXsXsXsXsXsXsXsXsXsXsXsXsXsX"
};
