/* XPM */
static char *result[] = {
/* columns rows colors chars-per-pixel */
"64 64 219 2 ",
"   c #010101",
".  c #0A0401",
"X  c #0C0A04",
"o  c #06080A",
"O  c #0B0B0C",
"+  c #110501",
"@  c #140B01",
"#  c #1B0C01",
"$  c #140E09",
"%  c #1C1304",
"&  c #171209",
"*  c #0C0F11",
"=  c #0F1214",
"-  c #121314",
";  c #171717",
":  c #1C1D1D",
">  c #231302",
",  c #251905",
"<  c #2C1A03",
"1  c #281908",
"2  c #311F04",
"3  c #361D0A",
"4  c #221D17",
"5  c #342206",
"6  c #35250A",
"7  c #39260B",
"8  c #382809",
"9  c #3D2B0C",
"0  c #262114",
"q  c #342913",
"w  c #362815",
"e  c #1B2428",
"r  c #252527",
"t  c #2B2B2B",
"y  c #3B3028",
"u  c #232D33",
"i  c #273137",
"p  c #333333",
"a  c #37393B",
"s  c #43290B",
"d  c #44320E",
"f  c #48340E",
"g  c #56300B",
"h  c #482712",
"j  c #443312",
"k  c #493612",
"l  c #4C3A15",
"z  c #43371F",
"x  c #4C3A1B",
"c  c #533F16",
"v  c #513E1B",
"b  c #6A3A1B",
"n  c #753E1A",
"m  c #4B3A28",
"M  c #523828",
"N  c #453E38",
"B  c #54421D",
"V  c #58441C",
"C  c #775010",
"Z  c #4D4129",
"A  c #544323",
"S  c #544424",
"D  c #5C4A25",
"F  c #5C4B2A",
"G  c #4A4539",
"H  c #584837",
"J  c #614F2B",
"K  c #794828",
"L  c #63512D",
"P  c #69552E",
"I  c #654A37",
"U  c #695733",
"Y  c #73583B",
"T  c #76633E",
"R  c #2E3B42",
"E  c #313F46",
"W  c #364249",
"Q  c #374750",
"!  c #3C4C55",
"~  c #3F5059",
"^  c #4A4645",
"/  c #564C45",
"(  c #485258",
")  c #565553",
"_  c #5B5B5B",
"`  c #685445",
"'  c #7A6745",
"]  c #475A64",
"[  c #4D616C",
"{  c #546A76",
"}  c #5A717C",
"|  c #656565",
" . c #686F74",
".. c #747475",
"X. c #863F11",
"o. c #87441A",
"O. c #964C1D",
"+. c #8A6316",
"@. c #874B25",
"#. c #8A542B",
"$. c #95552A",
"%. c #845637",
"&. c #945C37",
"*. c #9B5D35",
"=. c #A15D31",
"-. c #98702D",
";. c #9C613A",
":. c #A47031",
">. c #825C42",
",. c #83674B",
"<. c #8F6B4F",
"1. c #9B7157",
"2. c #96735B",
"3. c #A46B46",
"4. c #AD744A",
"5. c #B3744B",
"6. c #AD7857",
"7. c #B87D56",
"8. c #917867",
"9. c #A77E63",
"0. c #B78840",
"q. c #B98359",
"w. c #8F807B",
"e. c #96877B",
"r. c #A78469",
"t. c #B78A6D",
"y. c #BA8D70",
"u. c #A09072",
"i. c #C4855C",
"p. c #C68B64",
"a. c #CF9561",
"s. c #D3946A",
"d. c #CF9A73",
"f. c #D69B74",
"g. c #C4A37A",
"h. c #D7A276",
"j. c #DEA37D",
"k. c #E1A47E",
"l. c #647C89",
"z. c #7A7F82",
"x. c #6A8694",
"c. c #6C8896",
"v. c #6D8896",
"b. c #7492A1",
"n. c #7F9FAF",
"m. c #838483",
"M. c #878788",
"N. c #8A8A8A",
"B. c #8D9395",
"V. c #969899",
"C. c #AE9E93",
"Z. c #AEA59D",
"A. c #8E9DA4",
"S. c #929FA6",
"D. c #9AA2A6",
"F. c #87A9B9",
"G. c #99AAB2",
"H. c #A6A5A5",
"J. c #ABAAAA",
"K. c #B1ABA0",
"L. c #A5B4BA",
"P. c #B6B5B4",
"I. c #BBBBBA",
"U. c #DEAA86",
"Y. c #C4A894",
"T. c #D9B598",
"R. c #E5AB84",
"E. c #E8AD87",
"W. c #E9B18C",
"Q. c #ECB28C",
"!. c #F2B48D",
"~. c #EBB792",
"^. c #F7BA91",
"/. c #F3BC95",
"(. c #F5BE99",
"). c #CCBBAF",
"_. c #F7C29A",
"`. c #FBC49C",
"'. c #FECAA3",
"]. c #FECEA8",
"[. c #FFD3AB",
"{. c #E1D3B4",
"}. c #FFDBB1",
"|. c #F8E2BC",
" X c #8CAFC1",
".X c #95B9CA",
"XX c #95BDD1",
"oX c #99BFD1",
"OX c #A5BCC5",
"+X c #9BC2D4",
"@X c #A7C2CE",
"#X c #B1C7CF",
"$X c #A5CADD",
"%X c #A6CADC",
"&X c #A7CEE1",
"*X c #AAD2E6",
"=X c #ACD6EB",
"-X c #ADD8ED",
";X c #AEDBF1",
":X c #B2DEF3",
">X c #AFE0F8",
",X c #B4E0F6",
"<X c #B4E4FB",
"1X c #B9E6FC",
"2X c #BBEAFF",
"3X c #C7C7C7",
"4X c #D2D2D2",
"5X c #DDDCDC",
"6X c #E0DFDF",
"7X c #FFECC6",
"8X c #C0EFFF",
"9X c #C4F4FF",
"0X c #E4E4E4",
"qX c #E7E8E8",
"wX c #EBEBEB",
"eX c #F6F2EB",
"rX c #F2F2F2",
"tX c #FAFAF1",
"yX c #FDFDFD",
/* pixels */
"-X-X-X-X-X-X-X-X-X-X-X-X-X-X-X-X-X-X-X-X-X-X-X-X-X-X-X-X-X-X-X-X-X-X-X-X-X-X-X-X-X-X-X-X-X-X-X-X-X-X-X-X-X-X-X-X-X-X-X-X-X-X-X-X",
"-X-X-X-X-X-X-X-X-X-X-X-X-X-X-X-X-X-X-X-X-X-X-X-X-X-X-X-X-X-X-X-X-X-X-X-X-X-X-X-X-X-X-X-X-X-X-X-X-X-X-X-X-X-X-X-X-X-X-X-X-X-X-X-X",
"-X-X-X-X-X-X-X-X-X-X-X-X-X-X-X-X-X-X-X-X-X-X-X-X-X-X-X-X-X-X-X-X-X-X-X-X-X-X-X-X-X-X-X-X-X-X-X-X-X-X-X-X-X-X-X-X-X-X-X-X-X-X-X-X",
"-X-X-X-X-X-X-X-X-X-X-X-X-X-X-X-X-X-X-X-X-X-X-X-X-X-X-X-X-X-X-X-X-X-X-X-X-X-X-X-X-X-X-X-X-X-X-X-X-X-X-X-X-X-X-X-X-X-X-X-X-X-X-X-X",
"-X-X-X-X-X-X-X-X-X-X-X-X-X-X-X-X-X-X-X-X-X-X-X-X-X-X-X-X-X-X*X-X-X=X-X-X-X-X-X-X-X-X-X-X-X-X-X-X-X-X-X-X-X-X-X-X-X-X-X-X-X-X-X-X",
"-X-X-X-X-X-X-X-X-X-X-X-X-X-X-X-X-X-X-X-X-X-X-X-X-X-X-X*X*X-X=X=X=X=X=X*X*X-X-X-X-X-X-X-X-X-X-X-X-X-X-X-X-X-X-X-X-X-X-X-X-X-X-X-X",
"-X-X-X-X-X-X-X-X-X-X-X-X-X-X-X-X-X-X-X-X-X-X-X-X-X-X-X1X2X1X1X1X<X<X1X1X1X1X;X=X=X-X-X-X-X-X-X-X-X-X-X-X-X-X-X-X-X-X-X-X-X-X-X-X",
"-X-X-X-X-X-X-X-X-X-X-X-X-X-X-X-X-X-X-X-X-X-X-X-X-X,X*Xb.b.b.b.b.b.b.b.b.b.b.+X<X;X-X-X-X-X-X-X-X-X-X-X-X-X-X-X-X-X-X-X-X-X-X-X-X",
"-X-X-X-X-X-X-X-X-X-X-X-X-X-X-X-X-X-X-X-X-X-X-X-X$X$XF.                      } *X+X=X;X;X-X-X-X-X-X-X-X-X-X-X-X-X-X-X=X-X-X-X-X-X",
"-X-X-X-X-X-X-X-X-X-X-X-X-X-X-X-X-X-X-X-X-X=X*X2X! o O > 9 d d d > 9 j j 9 < & o : -X-X*X-X-X-X-X-X-X-X-X-X-X-X-X-X-X-X-X-X-X-X-X",
"-X-X-X-X-X-X-X-X-X-X-X-X-X-X-X-X-X-X-X-X=X>X,XQ ; > 8 v D F A 9 9 9 l L D 9 5 , & i +X<X*X-X-X-X-X-X-X-X-X-X-X-X-X-X-X-X-X-X-X-X",
"-X-X-X-X-X-X-X-X-X-X-X-X-X-X-X-X-X-X-X-X,X+X{ X > d D T D x x A f B x x U L D l 2 . ~ F.2X*X-X-X-X-X-X-X-X-X-X-X-X-X-X-X-X-X-X-X",
"-X-X-X-X-X-X-X-X-X-X-X-X-X-X-X-X-X-X-X-X+Xl.  < d B L ,.x > 1 S d B w > A ,.Y A k 6   Q +X=X-X-X-X-X-X-X-X-X-X-X-X-X-X-X-X-X-X-X",
"-X-X-X-X-X-X-X-X-X-X-X-X-X-X-X-X-X-X=X1X[   5 9 D A l ,.7 X   . d &   o > ' D k L d 6 . e :X-X-X-X-X-X-X-X-X-X-X-X-X-X-X-X-X-X-X",
"-X-X-X-X-X-X-X-X-X-X-X-X-X-X-X-X-X-X*X2X}   k J l B J U &               . F L B k L l @ u 8X-X-X-X-X-X-X-X-X-X-X-X-X-X-X-X-X-X-X",
"-X-X-X-X-X-X-X-X-X-X-X-X-X-X-X-X-X-X-Xl.r , f 9 8 B L V   H r.<.r.2.9.,.  j L D 9 9 k 5 ; ( $X;X=X-X-X-X-X-X-X-X-X-X-X-X-X-X-X-X",
"-X-X-X-X-X-X-X-X-X-X-X-X-X-X-X-X-X=X:Xe   , 8 < j A B , m d.[.`.].`.'.~./ 1 j D l < 5 1 +   oX:X=X-X-X-X-X-X-X-X-X-X-X-X-X-X-X-X",
"-X-X-X-X-X-X-X-X-X-X-X-X-X-X-X-X-X-X:Xi   . < d D B 6 ; T.'.E.'.E._./.E.[.y , x F l 5 #   o oX:X-X-X-X-X-X-X-X-X-X-X-X-X-X-X-X-X",
"-X-X-X-X-X-X-X-X-X-X-X-X-X-X-X-X-X-X:Xu . 2 d F A > 4 ].Q.(.'.E.'.^.^.'.R.}.`   c J l 5 #   +X:X=X-X-X-X-X-X-X-X-X-X-X-X-X-X-X-X",
"-X-X-X-X-X-X-X-X-X-X-X-X-X-X-X-X-X=X,Xu . 8 D V $ 1 b *.@.p.'.`.Q._.'.E.#.&.K 3 . l D j # o oX:X-X-X-X-X-X-X-X-X-X-X-X-X-X-X-X-X",
"-X-X-X-X-X-X-X-X-X-X-X-X-X-X-X-X-X-X:Xu . 7 L 1 > K s.7.p.5.p.(.R.(.f.4.i.7.a.3.3 % D x #   oX:X=X-X-X-X-X-X-X-X-X-X-X-X-X-X-X-X",
"-X-X-X-X-X-X-X-X-X-X-X-X-X-X-X-X-X=X<Xu . 7 L   K 7.t.t.y.3.4.Q.E.Q.p.*.t.t.y.7.*.  m x + . oX:X-X-X-X-X-X-X-X-X-X-X-X-X-X-X-X-X",
"-X-X-X-X-X-X-X-X-X-X-X-X-X-X-X-X-X=X;Xu . 7 L   9.1.  .   ,.^.R.E.E.!.y.    . M U.  x x # o  X;X-X-X-X-X-X-X-X-X-X-X-X-X-X-X-X-X",
"-X-X-X-X-X-X-X-X-X-X-X-X-X-X;X*X:X+X= b h X k   X ) K.C eX .w (.R.^.>.t tX-.u.v.$   9 1 & K - b.1X*X-X-X-X-X-X-X-X-X-X-X-X-X-X-X",
"-X-X-X-X-X-X-X-X-X-X-X-X-X-X-X-X:XoX  n 3   5 z . | tX+.) A +.W.R.!.0.x ( C {.L.  y 9 . . #.  x.2X*X-X-X-X-X-X-X-X-X-X-X-X-X-X-X",
"-X-X-X-X-X-X-X-X-X=X-X-X-X-X-X=X:XoX  b %.M # T & ^ T.+.2 V 0._.E.(.a.C , C g.w.  ' < w Y @.. c.2X*X-X-X-X-X-X-X-X-X-X-X-X-X-X-X",
"-X-X-X-X-X-X-X-X-X-X-X-X-X-X-X-X:XoXo h q.r.. ' : 1 $.-.:.-.q.].Q.'.f.-.:.:.$.g   ,.& I f.n . c.<X*X-X-X-X-X-X-X-X-X-X-X-X-X-X-X",
"-X-X-X-X-X-X-X-X-X-X-X-X-X-X-X=X:XoX  > X . f P X m R.7Xd.W.`.R.'.Q./._.a.|._.%.  L B %   >   x.1X-X-X-X-X-X-X-X-X-X-X-X-X-X-X-X",
"-X-X-X-X-X-X-X-X-X-X-X-X-X-X-X=X1X$X  x 0 . k & ,.U.(.d./.R.R.[.[.}.~.f._.g.~.~.9.& j , X F   b.8X*X-X-X-X-X-X-X-X-X-X-X-X-X-X-X",
"-X-X-X-X-X-X-X-X-X-X-X-X-X-X=X:X X( + F w . k   1.`.^.R.].R.7.6.7.7.7.f.}.h.Q.`.f.  7 1 $ U @ R b.,X-X-X-X-X-X-X-X-X-X-X-X-X-X-X",
"-X-X-X-X-X-X-X-X-X-X-X-X-X-X*X2Xx.  q B 0 . 9 & J 6.f.'.'.~.p.3.3.&.7.R.`.^.k.q.Y % 8 % X A j   W 2X=X-X-X-X-X-X-X-X-X-X-X-X-X-X",
"-X-X-X-X-X-X-X-X-X-X-X-X-X-X*X2Xc.  L 3 . X > f + > $.U.f./.].[.[.[.]._.k.E.3.s   f < X . > L & Q 1X*X-X-X-X-X-X-X-X-X-X-X-X-X-X",
"-X-X-X-X-X-X-X-X-X-X-X-X-X-X*X1Xc.  B X q Z   > s 1 $ $.$.6.k.!.!./.E.p.$.=.h X 9 <   q Z   l X Q 1X=X-X-X-X-X-X-X-X-X-X-X-X-X-X",
"-X-X-X-X-X-X-X-X-X-X-X-X-X;X*X2Xv.  .   0 k # . F m   # # b =.&.*.&.;.@.# # . 4 T X + 9 j   .   ( <X*X-X-X-X-X-X-X-X-X-X-X-X-X-X",
"-X-X-X-X-X-X-X-X-X-X-X-X-X-X*X2Xx.  [ = > d >   H Z . a p / <.5.5.5.3.` p a = 4 T   # 8 6   ] - W 1X=X;X-X-X-X-X-X-X-X-X-X-X-X-X",
"-X-X-X-X-X-X-X-X-X-X-X-X-X-X=X<Xb.u 2Xu # 9 % . x q = H.H.D.K.W.T.W.Y.S.D.P.a # D X # 5 6   :X{ ] 2X*X=X-X-X-X-X-X-X-X-X-X-X-X-X",
"-X-X-X-X-X-X-X-X-X-X-X-X-X-X-X-X;X-X;Xu X %   9 l % : wX4X0X4Xm.N.z.P.rX3XtX_   k f X + ,   XX,X-X-X-X-X-X-X-X-X-X-X-X-X-X-X-X-X",
"-X-X-X-X-X-X-X-X-X-X-X-X-X-X-X-X-X-X=X$X(   . k . ) rXrX4X6XrXwXrXwXrXqX4XwXrXV.. f &   : XX*X-X-X-X-X-X-X-X-X-X-X-X-X-X-X-X-X-X",
"-X-X-X-X-X-X-X-X-X-X-X-X-X-X-X-X-X-X-X,X.X[   5 w G ..P.5X0XwXyXyXrXrXwX6X3XM./ y 8 o E n.:X-X-X-X=X-X-X-X-X-X-X-X-X-X-X-X-X-X-X",
"-X-X-X-X-X-X-X-X-X-X-X-X-X-X-X-X-X-X-X*X2XF.  @ w q & ) 4XyXrXrXrXrXrXrXrX..4 % m #   { 9X*X-X-X-X-X-X-X-X-X-X-X-X-X-X-X-X-X-X-X",
"-X-X-X-X-X-X-X-X-X-X-X-X-X-X-X-X-X-X-X-X,XF.* X $ w F   3XyXyXyXyXyXyXyXwX: w m X X * } <X*X;X-X-X-X-X-X-X-X-X-X-X-X-X-X-X-X-X-X",
"-X-X-X-X-X-X-X-X-X-X-X-X-X-X-X-X-X-X-X-X-X-X$XK s.1.    3XyXyXyXyXyXyXyXrX:   H !.o.G.;X-X-X-X-X-X-X-X-X-X-X-X-X-X-X-X-X-X-X-X-X",
"-X-X-X-X-X-X-X-X-X-X-X-X-X-X-X-X-X-X-X-X-X-X=X&.M 4 O P.5XtXyXyXyXyXyXyXwX3XN O M o.L.>X-X-X-X-X-X-X-X-X-X-X-X-X-X-X-X-X-X-X-X-X",
"-X-X-X-X-X-X-X-X-X-X-X-X-X-X-X-X-X-X-X-X=X-X=X&.+ * | yXrXyXyXyXyXyXyXyXrXyXV.r   n OX<X*X-X-X-X-X-X-X-X-X-X-X-X-X-X-X-X-X-X-X-X",
"-X-X-X-X-X-X-X-X-X-X-X-X-X-X-X-X-X-X-X-X;X&XL.3.M G N.0XtXyXyXyXyXyXyXyXyXwXH.) y &.Z.$X-X-X-X-X-X-X-X-X-X=X-X-X-X-X-X-X-X-X-X-X",
"-X-X-X-X-X-X-X-X-X-X-X-X-X-X-X-X-X-X-X=X>XL.o.j.}.2.* 4XqXwXwXwXwXwXwXwXwX0XN m }.Q.$.e.<X*X-X-X-X-X-X-X-X-X-X-X-X-X-X-X-X-X-X-X",
"-X-X-X-X-X-X-X-X-X-X-X-X-X-X-X-X-X-X-X=X;XL.@.j.`.Y.v.rXyXyXyXyXyXyXyXyXyXyXH.e.].~.*.e.<X=X;X-X-X-X-X-X-X-X-X-X-X-X-X-X-X-X-X-X",
"-X-X-X-X-X-X-X-X-X-X-X-X-X-X-X-X-X-X-X=X>XL.X.d.`.T.V.I.I.I.I.I.I.I.I.I.I.I.D.Z.'.R.O.e.<X=X-X-X-X-X-X-X-X-X-X-X-X-X-X-X-X-X-X-X",
"-X-X-X-X-X-X-X-X-X-X-X-X-X-X-X-X-X-X-X-X:X@X8.3.!.C./ _ | _ _ | | | _ _ | _ ( 8.`.5.1.G.;X=X-X-X-X-X-X-X-X-X-X-X-X-X-X-X-X-X-X-X",
"-X-X-X-X-X-X-X-X-X-X-X-X-X-X-X-X-X-X-X-X=X:X:X>.a.<.. $ t : - t t t : - p -   m k.%.OX<X-X-X-X-X-X-X-X-X-X-X-X-X-X-X-X-X-X-X-X-X",
"-X-X-X-X-X-X-X-X-X-X-X-X-X-X-X-X-X-X-X-X=X=X=X:X8.o.n   t t O       o : p   h O.#.*X-X=X-X-X-X-X-X-X-X-X-X-X-X-X-X-X-X-X-X-X-X-X",
"-X-X-X-X-X-X-X-X-X-X-X-X-X-X-X-X-X-X-X-X-X-X=X:X@XOXA.  t t O o F.i   r a    .#XOX-X;X-X-X-X-X-X-X-X-X-X-X-X-X-X-X-X-X-X-X-X-X-X",
"-X-X-X-X-X-X-X-X-X-X-X-X-X-X-X-X-X-X-X-X=X=X;X=X:X<XXX  r ;   O :XW   - i   x.2X-X-X-X-X-X-X-X-X-X-X-X-X-X-X-X-X-X-X-X-X-X-X-X-X",
"-X-X-X-X-X-X-X-X-X-X-X-X-X-X-X-X-X-X-X-X-X;X=X=X=X:X.X  t : o O *XW   - p   l.2X*X=X-X-X-X-X-X-X-X-X-X-X-X-X-X-X-X-X-X-X-X-X-X-X",
"-X-X-X-X-X-X-X-X-X-X-X-X-X-X-X-X-X-X-X-X-X-X;X=X=X:X Xo a a ; o *XE . p ^   l.1X*X-X-X-X-X-X-X-X-X-X-X-X-X-X-X-X-X-X-X-X-X-X-X-X",
"-X-X-X-X-X-X-X-X-X-X-X-X-X-X-X-X-X-X-X-X-X-X=X=X2Xv.          o -XR           ! 1X=X-X-X-X-X-X-X-X-X-X-X-X-X-X-X-X-X-X-X-X-X-X-X",
"-X-X-X-X-X-X-X-X-X-X-X-X-X-X-X-X-X-X-X-X-X-X=X:X.XV.H.J.J.J.N._ -Xz...J.J.J.J.V.G.*X;X-X-X-X-X-X-X-X-X-X-X-X-X-X=X-X-X-X-X-X-X-X",
"-X-X-X-X-X-X-X-X-X-X-X-X-X-X-X-X-X-X-X-X-X-X=X:XV.P.yXyXyXyX6XB.;XA.).yXyXyXyX5Xm.=X;X=X-X-X-X-X-X-X-X-X-X-X-X-X-X-X-X-X-X-X-X-X",
"-X-X-X-X-X-X-X-X-X-X-X-X-X-X-X-X-X-X-X-X-X-X-X:XA.J.wXqXwXqX3XM.;XA.H.qXqXwXwX3XN.-X;X-X-X-X-X-X-X-X-X-X-X-X-X-X-X-X-X-X-X-X-X-X",
"-X-X-X-X-X-X-X-X-X-X-X-X-X-X-X-X-X-X-X-X-X-X-X:XD.m.N.N.M.N.M.N.=XS.m.N.N.N.N.N.B.*X-X-X-X-X-X-X-X-X-X-X-X-X-X-X-X-X-X-X-X-X-X-X",
"-X-X-X-X-X-X-X-X-X-X-X-X-X-X-X-X-X-X-X-X-X-X-X-X*X%X%X%X#X%X%X%X-X*X%X%X$X$X%X%X$X-X-X-X-X-X-X-X-X-X-X-X-X-X-X-X-X-X-X-X-X-X-X-X",
"-X-X-X-X-X-X-X-X-X-X-X-X-X-X-X-X-X-X-X-X-X-X-X-X;X;X;X;X:X-X:X:X-X-X-X:X:X-X;X;X;X-X-X-X-X-X-X-X-X-X-X-X-X-X-X-X-X-X-X-X-X-X-X-X",
"-X-X-X-X-X-X-X=X-X-X-X-X-X-X-X-X-X-X-X-X-X-X-X-X-X-X=X=X-X=X-X-X-X-X=X-X=X=X=X=X=X-X-X-X-X-X-X-X-X-X-X-X-X-X-X-X-X-X-X-X-X-X-X-X",
"-X-X-X-X-X-X-X-X-X-X-X-X-X-X-X-X-X-X-X-X-X-X-X-X-X-X-X=X-X-X-X-X-X-X-X=X;X-X=X;X-X-X-X-X-X-X-X-X-X-X-X-X-X-X-X-X-X-X-X-X-X-X-X-X"
};
