/* XPM */
static char *result[] = {
/* columns rows colors chars-per-pixel */
"64 64 156 2 ",
"   c #010101",
".  c #050807",
"X  c #040708",
"o  c #060909",
"O  c #090B0C",
"+  c #0B0F10",
"@  c #0E1112",
"#  c #121515",
"$  c #111719",
"%  c #141A1B",
"&  c #1A1C1C",
"*  c #171E20",
"=  c #191F23",
"-  c #192123",
";  c #1D262A",
":  c #262627",
">  c #242B2D",
",  c #2A2C2C",
"<  c #242D32",
"1  c #2D2F30",
"2  c #273236",
"3  c #2D3233",
"4  c #2A363B",
"5  c #2D393E",
"6  c #333535",
"7  c #383737",
"8  c #373738",
"9  c #363839",
"0  c #3C3D3D",
"q  c #2F3B41",
"w  c #333E42",
"e  c #334146",
"r  c #3E4143",
"t  c #354349",
"y  c #3B4549",
"u  c #3C4B52",
"i  c #3F5057",
"p  c #414343",
"a  c #474949",
"s  c #4D4E4E",
"d  c #4F504F",
"f  c #414D53",
"g  c #4E5051",
"h  c #43545C",
"j  c #4A575D",
"k  c #535354",
"l  c #565758",
"z  c #5B5D5D",
"x  c #455760",
"c  c #475962",
"v  c #4A5B64",
"b  c #4B5F68",
"n  c #505F67",
"m  c #5F5F60",
"M  c #4D606A",
"N  c #546267",
"B  c #52646D",
"V  c #5A686E",
"C  c #556972",
"Z  c #596F79",
"A  c #5B727D",
"S  c #636364",
"D  c #676768",
"F  c #676868",
"G  c #6C6C6D",
"H  c #6F6F70",
"J  c #6F7172",
"K  c #61757E",
"L  c #737374",
"P  c #777778",
"I  c #787779",
"U  c #777879",
"Y  c #7B7B7C",
"T  c #5E7682",
"R  c #607984",
"E  c #647D89",
"W  c #7F7F80",
"Q  c #807F80",
"!  c #67818E",
"~  c #6A8592",
"^  c #6D8995",
"/  c #718E9B",
"(  c #74919E",
")  c #7694A2",
"_  c #7897A6",
"`  c #7A99A7",
"'  c #7C9CAB",
"]  c #838283",
"[  c #888787",
"{  c #8C8B8B",
"}  c #908F8F",
"|  c #91908F",
" . c #949393",
".. c #989796",
"X. c #999897",
"o. c #979A9C",
"O. c #9C9A9A",
"+. c #A19E9D",
"@. c #A2A09F",
"#. c #80A0AF",
"$. c #83A4B4",
"%. c #87A9B9",
"&. c #8AACBD",
"*. c #A5A3A2",
"=. c #A9A6A6",
"-. c #AAA8A7",
";. c #A5A7A8",
":. c #ACAAA9",
">. c #B1AFAE",
",. c #B2B0AF",
"<. c #B5B3B3",
"1. c #B8B7B6",
"2. c #B9B8B7",
"3. c #B9B7B8",
"4. c #BCBBBB",
"5. c #8EB1C2",
"6. c #90B5C6",
"7. c #92B7C8",
"8. c #98BED0",
"9. c #9BC2D4",
"0. c #9EC6D9",
"q. c #A1CADE",
"w. c #A4CEE2",
"e. c #A7D0E4",
"r. c #A8D2E7",
"t. c #ABD6EB",
"y. c #ADD8ED",
"u. c #AFDBF0",
"i. c #B1DDF3",
"p. c #B4E0F6",
"a. c #B6E3FA",
"s. c #B8E6FC",
"d. c #BDECFF",
"f. c #C4C3C3",
"g. c #C8C7C6",
"h. c #CBCBCB",
"j. c #D0CFCF",
"k. c #D3D4D4",
"l. c #D8D7D7",
"z. c #D8D8D7",
"x. c #D6D7D8",
"c. c #D7D9DA",
"v. c #DBDCDC",
"b. c #DFDFE0",
"n. c #DFE1E1",
"m. c #C2F2FF",
"M. c #C9FAFF",
"N. c #E4E5E5",
"B. c #E7E7E8",
"V. c #E7E8E9",
"C. c #EBEBEC",
"Z. c #EFEFF0",
"A. c #F4F5F5",
"S. c #F6F7F8",
"D. c #F7F8F9",
"F. c #F9FAFB",
/* pixels */
"y.y.y.y.y.y.y.y.y.t.t.i.8.2 2 2 < 5 0.i.y.y.y.y.y.y.y.y.t.p.%.< 2 2 2 2 2 > / a.t.t.y.y.y.y.y.y.y.y.y.y.y.y.y.y.y.y.y.y.y.y.y.y.",
"y.y.y.y.y.y.y.y.y.y.t.p.6.        o 9.i.y.y.y.y.y.y.y.y.t.s.`           X   T s.t.y.y.y.y.y.y.y.y.y.y.y.y.y.y.y.y.y.y.y.y.y.y.y.",
"y.y.y.y.y.y.y.y.y.y.t.i.6.X . o . @ 9.i.t.y.y.y.y.t.y.y.t.a.'   o X o X O   R s.t.y.y.y.y.y.y.y.y.y.y.y.y.y.y.t.y.y.y.y.y.y.y.y.",
"y.y.y.y.y.y.y.y.y.y.t.i.6.O o O . @ 9.u.t.y.y.t.t.t.t.t.r.p.'   O o o o O   T s.e.y.y.y.y.y.t.t.t.t.t.t.y.y.y.y.y.y.y.y.y.y.y.y.",
"y.y.y.y.y.y.y.y.y.y.p.d.8.          w.s.p.t.y.s.s.s.s.s.p.d.$.              E m.a.u.y.y.y.y.p.s.s.a.s.y.y.y.y.y.y.y.y.y.y.y.y.y.",
"y.y.y.y.y.y.y.y.y.i.( A K P P P U J Z A ` p.e.! Z A A A A T V d g d d k g g v T T e.u.y.y.e.E A A A A 9.i.t.y.y.y.y.t.y.y.y.y.y.",
"y.y.y.y.y.y.y.y.t.a.t   , F.F.F.F.A.O   i s.w.@             0 F.F.F.F.F.F.F.m   O 0.u.y.u.w.@         $.s.t.y.y.y.y.y.y.y.y.y.y.",
"y.y.y.y.y.y.y.y.t.a.u   6 S.D.S.F.v.$ X v s.e.-   o o o O   p F.D.D.D.D.D.F.S   % 0.u.t.y.e.-   o o   %.p.t.y.y.y.y.y.y.y.y.y.y.",
"y.y.y.y.y.y.y.y.t.a.u   3 S.D.D.F.B.#   j s.q.-   o . o O   a F.D.D.D.F.D.F.S   % 0.y.t.y.q.*   o o   %.p.t.y.y.y.y.y.y.y.y.y.y.",
"y.y.y.y.y.y.y.y.t.a.u   3 D.F.D.F.b.@   x m.y.%         X   0 F.D.F.F.F.D.F.m   @ e.s.p.a.t.%         &.d.i.y.y.y.y.y.y.y.y.y.y.",
"y.y.y.y.y.y.y.y.t.a.u   6 D.F.D.F.B., & h 5.' 2 & & & & & # k F.D.D.F.D.D.F.H # > ` %.$.%.#.> & & - & ~ &.&.y.y.y.y.y.y.y.y.y.y.",
"y.y.y.y.y.y.y.y.t.a.u   , D.F.D.D.S.B.S.U   O g.Z.B.C.C.C.C.Z.F.F.F.F.F.F.D.Z.A.h.o   X   @ j.A.V.V.Z.0   q i.y.y.y.y.y.y.y.y.y.",
"y.y.y.y.y.y.y.y.t.a.u   6 D.D.D.F.F.F.F.]   O c.F.F.F.F.F.F.F.F.F.F.F.D.F.F.F.F.v.O X .   @ B.F.F.F.F.p   q i.y.y.y.y.y.y.y.y.y.",
"y.y.y.y.y.y.y.y.t.a.u   3 D.F.D.F.F.A.F.]   + x.F.D.F.F.F.D.F.F.F.D.F.F.D.F.D.F.v.O . .   # N.F.D.D.F.p   w i.t.y.y.y.y.y.y.y.y.",
"y.y.y.y.y.y.y.y.t.a.u   6 D.F.D.F.F.D.F.]   O z.F.D.F.F.F.F.F.F.F.F.F.F.F.F.D.F.c.o   .   + N.F.D.D.F.p   5 p.y.t.y.y.y.y.y.y.y.",
"y.y.y.y.y.y.y.t.w.y.f . 8 D.F.F.D.F.S.F.]   + c.F.D.F.F.D.F.D.D.D.F.D.F.D.F.D.F.v.# + + O & n.F.D.D.F.a . e t.e.t.y.y.y.y.y.y.y.",
"y.y.y.y.y.t.p.&.- - o.v.c.F.F.F.F.F.D.F.N.g.h.A.F.S.F.F.D.F.F.F.F.F.F.F.F.F.D.F.S.c.x.x.x.c.S.F.F.F.F.v.c.o.- - #.a.r.y.y.y.y.y.",
"y.y.y.y.y.t.a.$.    :.F.F.F.D.F.D.D.F.D.F.F.F.F.F.F.F.F.S.F.D.F.F.D.F.S.F.F.F.S.D.F.F.F.F.F.F.D.F.F.F.F.F.,.    ) a.t.y.y.y.y.y.",
"y.y.y.y.y.t.a.$.    :.F.S.F.D.F.F.F.F.F.D.D.D.F.F.S.F.F.F.F.F.F.F.D.F.F.S.F.F.F.F.D.D.D.D.D.F.F.F.F.F.S.F.:.    ) a.y.y.y.y.y.y.",
"y.y.t.t.t.r.p.$.X X >.F.S.D.F.F.F.F.F.F.F.F.F.F.F.F.F.F.F.F.F.S.F.F.F.F.F.F.F.F.F.F.F.F.F.F.F.F.F.F.F.S.F.:..   ) a.r.t.t.y.y.y.",
"y.y.i.a.a.p.m.%.    ;.F.S.F.F.F.F.F.F.F.F.F.F.F.F.F.F.F.F.D.F.F.F.F.F.F.F.F.F.F.D.F.F.F.F.F.F.F.F.D.F.A.F.;.    ` m.i.a.a.i.y.y.",
"t.p.%.h j c x V O.O.v.F.D.D.F.D.F.D.F.F.F.D.F.D.F.F.F.S.F.F.F.D.D.F.D.F.F.F.F.F.F.F.F.D.F.S.S.D.F.D.D.S.F.v.X.@.N x c v h #.p.r.",
"t.s.^         0 F.F.F.D.F.D.F.F.F.F.F.F.F.F.F.F.F.F.F.F.F.F.D.F.F.F.F.F.F.D.F.F.F.F.F.D.F.F.D.F.F.F.F.F.F.F.F.F.0         R s.t.",
"t.s.(   O O   r F.S.F.F.F.F.F.F.F.D.F.F.D.F.F.F.F.F.F.F.F.F.F.F.F.F.F.D.F.F.F.F.D.F.F.F.F.F.F.F.F.F.F.F.F.F.D.F.r   O O   E s.t.",
"e.a./   O O   p F.D.F.F.F.F.F.D.F.F.F.F.F.F.D.D.F.F.F.F.F.F.F.F.D.F.F.D.F.F.F.D.F.F.F.D.F.F.F.F.F.F.F.F.F.F.F.F.p   O O   E a.r.",
"i.m.)         7 F.F.D.F.D.F.F.F.F.D.F.D.F.F.D.F.F.D.F.D.D.F.D.F.D.F.F.F.F.D.F.D.D.F.D.F.F.F.F.F.F.F.D.F.F.F.D.F.0         ! m.i.",
"` ` K 8 0 d k ! F.D.F.F.F.F.F.F.D.D.D.F.D.D.D.F.F.D.D.D.D.F.D.D.F.D.D.D.D.D.D.F.D.D.F.D.F.D.D.D.D.D.D.F.D.D.F.F.S 6 7 , : N ' ) ",
"@   0 <.-.Z.F.F.F.D.D.F.F.F.D.F.F.F.F.F.F.F.F.F.F.F.F.F.F.F.F.F.F.F.F.F.F.F.F.F.F.F.F.D.F.F.F.F.F.F.F.F.F.F.F.F.4.:.@.I Q ,     ",
"%   0 ,.@.B.F.D.F.F.F.F.D.F.D.D.F.D.D.F.F.D.D.D.F.D.F.D.F.F.D.F.F.F.F.F.F.D.D.F.F.D.F.F.D.F.D.F.F.F.D.F.F.D.F.F.1.*.O.L Y ,   O ",
"%   0 >.@.B.F.D.F.F.D.F.F.F.F.F.F.F.F.F.F.F.F.F.F.F.F.F.F.F.F.F.F.S.F.F.F.F.F.F.F.F.F.F.F.F.F.F.F.F.F.F.F.D.D.F.1.*.O.L Y ,   O ",
"%   0 >.*.B.F.F.F.D.D.F.F.F.F.F.F.F.F.F.F.F.D.F.D.F.F.D.D.D.F.D.S.F.S.F.F.F.D.F.D.F.D.F.F.D.D.D.F.D.S.F.F.F.F.F.3.*.O.P Y ,   O ",
"%   0 >.@.B.F.F.F.F.F.F.F.D.F.F.F.F.F.D.F.F.F.F.F.D.F.F.F.F.F.F.F.F.F.F.F.F.F.F.F.D.F.D.F.F.F.F.F.F.F.F.F.F.D.F.3.*.O.L Y ,   o ",
"%   0 >.*.C.F.F.D.F.D.F.D.F.F.F.F.F.F.F.S.F.F.F.D.F.F.F.D.F.F.F.F.F.F.F.F.F.F.F.F.F.F.F.F.F.D.F.F.F.D.F.F.B.,.<.:.:.O.L Y ,   O ",
"%   0 ,.@.C.F.F.F.F.F.F.F.F.F.F.F.F.S.F.F.F.F.F.F.F.F.D.F.F.F.D.F.S.F.F.F.D.F.F.F.D.F.D.F.F.F.F.F.F.F.D.F.v.@.*.*.-.O.L Y ,   o ",
"%   0 ,.*.B.F.F.F.F.F.F.F.F.F.F.F.F.F.F.F.F.F.F.F.F.F.F.F.F.F.F.F.F.F.F.F.F.D.F.F.F.F.F.D.F.F.F.F.F.F.D.F.N.@.:.*.:.O.L Y ,   O ",
"%   0 >.@.B.F.F.F.D.F.D.D.F.F.F.D.S.F.F.F.S.F.F.F.F.F.F.D.D.F.F.F.F.F.S.D.F.F.D.F.F.D.F.D.F.F.D.D.F.F.D.F.b.@.*.*.:.O.L Y ,   O ",
"%   0 >.*.C.F.F.F.F.F.F.F.F.F.F.F.F.F.F.F.F.F.F.F.F.F.F.F.F.F.F.F.F.F.F.F.F.F.D.F.F.F.F.F.F.F.F.F.F.F.F.F.b.@.:.=.=.O.L Y ,   O ",
"%   6 { Q >.4.4.4.4.4.4.g.D.F.v.3.f.A.F.F.F.F.F.D.F.F.D.g.1.h.F.F.F.F.F.F.F.F.F.F.D.F.v.4.4.4.2.j.F.D.F.F.b.@.=.=.=.O.L Y ,   O ",
"%   , U H ..*.@.@.*.=.@.,.D.F.j.O.=.Z.F.F.F.F.F.F.F.F.F.<.O.1.F.S.F.F.F.F.F.F.F.F.D.F.j.+.@.@.+.f.F.F.D.F.b.@.-.*.-.O.L Y ,   O ",
"%   , Q L +.:.=.=.=.=.*.1.F.F.k.+.>.A.F.F.D.D.F.D.D.F.F.1.@.4.F.S.F.S.F.S.F.S.F.F.F.F.j.@.:.:.@.f.F.D.D.F.N.@.=.=.-.O.L Y ,   o ",
"%   , Y L O.=.*.*.*.=.@.<.D.F.j.+.:.Z.F.F.F.F.F.F.F.D.F.2.@.2.D.S.F.D.F.F.D.F.F.F.S.F.j.+.=.=.+.f.F.D.D.F.v.@.*.*.=.O.L U ,   O ",
"O   , ] Y +.:.-.:.-.:.=.2.F.F.k.@.,.F.F.F.F.F.F.F.F.F.F.4.*.4.F.F.F.F.F.F.F.F.F.F.F.F.k.@.:.:.*.g.F.F.F.F.N.*.:.:.:.+.U ] ,     ",
"h t y p 0 Y  .} | | | { O.k.z.,.[ ..k.l.B.F.F.F.F.C.k.k.O.{ ..4.1.h.l.c.D.F.F.F.D.B.C.4.{ } | { -.c.k.j.v.f.{ } }  .Q p p w y t ",
"i.d.(     z I L L L L L Y @.*.{ H I +.+.g.F.S.S.F.l.O.*.Y L L G G } @.>.D.F.D.F.S.:.*.} H L L H [ *.@.@.*. .H L L P m     ! m.i.",
"r.s./   . z Y L P L I L Q *.:.} L Y =.@.h.F.F.F.F.v.*.=.Y L P I L ..=.,.F.F.F.F.S.>.=.} L I I L { :.*.=.:.O.L I P Y S O   E a.r.",
"t.s./   . z Y L P L I L Q *.:.{ H I *.@.g.F.F.D.F.v.@.:.Q L P P L  .=.>.A.F.D.F.S.>.=.} L I L L [ :.=.*.=...L I L Y S O   E s.t.",
"t.s./     m Q Y Y Y I L Q *.>.| I Y *.*.j.F.F.F.F.b.*.:.] U U Y I X.-.,.F.F.F.F.D.>.:.} L I U I { :.=.=.:.O.I U P Y S o   E s.t.",
"r.a.) + $ g S m m m H I Y O.@.Y z D O.O.4.C.B.C.C.h...+.G m m S z [ +.=.N.B.N.b.v.*.+.[ F H H F ] =.@.@.*. .G G G H m % + ~ s.r.",
"y.u.r.0.q.2   o o   k Y P L Y r   # H P { -.*.*.:. .L I &   o o   s I Q *.=.{ H I P Y s o # + O 7 ] I U ! l O # @ o > q.0.e.y.y.",
"y.y.u.u.a.4   o .   l Y L L Y 0   # H L { -.-.*.:. .L I &   X o   s Y Q =.:.{ L P L Y s     .   , Y L L Y k   .     ; y.i.y.y.y.",
"y.y.t.t.i.4   o X   k Y L I Q 0   # L L { :.*.*.:. .L I & X . .   s Y Q *.:.{ L I L Y s   o o   1 Y P L Y k   o O   : t.y.t.y.y.",
"y.t.u.t.i.4   o O   k Y L L Q w   # J L { :.*.-.:.| L P &   o O   d I Q =.:.{ L L L Y s   O O   6 Y L L Y k   o O   > y.y.y.y.y.",
"y.y.u.t.u.<         k ] I I ] 0   O P U | :.=.-.:...I Y #         d ] ] :.:.} L I Y ] a         , ] U U ] k         = t.y.y.y.y.",
"y.y.t.u.u.$.) ) ) ' f : , , : n ' ^ 1 : l [ ] ] { S : : K ' ) ) ` y : 8 ] ] Y L G , : j ' ( ( ' V : , , : r ` ) _ / #.y.y.y.y.y.",
"y.y.y.t.u.a.s.s.p.m.u         A M.q.O   9 Y J L I a     %.m.p.a.d.e   @ L L L U D o   b m.a.a.d.~   X     4 d.a.a.s.a.y.y.y.y.y.",
"y.y.t.u.t.t.t.t.r.i.u   O O   Z s.9.@   0 W P L Q s     ' p.r.r.i.e   & L I I Y F O   b a.r.r.a.!   o O   q i.r.t.t.t.y.y.y.y.y.",
"y.y.y.y.y.y.y.y.t.a.u   O O X Z d.9.@   0 Y L L U s .   ' a.t.t.a.t   & L P L P D +   b s.t.t.s.~   O O   w i.t.y.y.y.y.y.y.y.y.",
"y.y.y.y.y.y.y.y.t.a.e         C d.9..   0 [ U Y ] s     ` s.t.t.a.5   @ Y Y U W H     x s.t.t.s.E         1 i.y.y.y.y.y.y.y.y.y.",
"y.y.y.y.y.y.y.y.y.i.~ c M b x ' a.q.B M u 8 7 9 7 w M c 7.i.t.y.i.! v h 6 6 8 6 6 c c ) a.t.t.i.$.c b b c E y.y.y.y.y.y.y.y.y.y.",
"y.y.y.y.y.y.y.y.y.t.p.s.s.s.s.i.y.y.p.m.A         t d.a.i.y.y.y.y.i.d.7.        + r.s.i.t.t.u.t.i.s.a.s.s.a.y.y.y.y.y.y.y.y.y.y.",
"y.y.y.y.y.y.y.y.y.y.t.t.t.t.t.t.t.y.r.s.A   O o   e i.t.t.y.y.y.y.t.p.&.X . o   # 9.u.t.y.y.y.y.y.t.r.y.t.t.y.y.y.y.y.y.y.y.y.y.",
"y.y.y.y.y.y.y.y.y.y.y.y.y.y.y.y.y.y.t.s.A   o o   t p.t.y.y.y.y.y.t.p.&.  . . X # 0.u.y.y.y.y.y.y.y.y.y.y.y.y.y.y.y.y.t.y.y.y.y.",
"t.y.y.y.t.y.y.y.y.y.y.y.y.y.y.y.y.y.t.s.A   . X   w p.t.y.y.y.y.y.t.a.&.        + 0.u.y.y.y.y.y.y.y.y.y.y.y.y.y.y.y.y.y.y.y.y.y.",
"y.y.y.y.y.y.y.y.y.y.y.y.y.y.y.y.y.y.t.s.E $ - - $ h i.y.y.y.y.y.y.t.p.5.% * = % < 0.i.t.y.y.y.y.y.y.y.y.y.y.y.y.y.y.y.y.y.y.y.y."
};
